<svg width="20" height="10" viewBox="0 0 20 10" fill="#33C1CC" xmlns="http://www.w3.org/2000/svg">
<path d="M19.6781 4.22055L15.7562 0.318693C15.373 -0.0625383 14.7422 -0.119234 14.3393 0.242447C13.9098 0.626807 13.8968 1.28565 14.3004 1.68761L16.0781 3.45652C16.2789 3.65633 16.1366 3.99729 15.8529 3.99729H9.44269C8.90033 3.99729 8.41455 4.4012 8.38626 4.94C8.35599 5.514 8.81504 5.98986 9.3861 5.98986H15.8529C16.1366 5.98986 16.2789 6.33121 16.0781 6.53062L14.3405 8.25965C13.9573 8.64088 13.9007 9.26845 14.2635 9.66884C14.6502 10.0962 15.3128 10.1091 15.7165 9.70794L19.6781 5.7662C20.1073 5.33961 20.1073 4.64714 19.6781 4.22055Z"/>
<path d="M5.67598 3.99725H4.52207C3.9691 3.99725 3.52066 4.44339 3.52066 4.99354C3.52066 5.54369 3.9691 5.98982 4.52207 5.98982H5.67598C6.22896 5.98982 6.677 5.54369 6.677 4.99354C6.677 4.44339 6.22896 3.99725 5.67598 3.99725Z"/>
<path d="M1.1091 3.99725H1.00102C0.448436 3.99725 0 4.44378 0 4.99393C0 5.54408 0.448436 5.99022 1.00102 5.99022H1.10871C1.66208 5.99022 2.10973 5.54408 2.10973 4.99393C2.10973 4.44378 1.66208 3.99725 1.1091 3.99725Z"/>
</svg>
